<?xml version="1.0"?>
<svg xmlns="http://www.w3.org/2000/svg" xmlns:xlink="http://www.w3.org/1999/xlink" xmlns:svgjs="http://svgjs.com/svgjs" version="1.1" width="512" height="512" x="0" y="0" viewBox="0 0 512 512" style="enable-background:new 0 0 512 512" xml:space="preserve" class=""><g><path xmlns="http://www.w3.org/2000/svg" d="m475.199219 0h-438.398438c-20.292969 0-36.800781 16.507812-36.800781 36.800781v301.359375c0 20.292969 16.507812 36.800782 36.800781 36.800782h438.398438c20.292969 0 36.800781-16.507813 36.800781-36.800782v-301.359375c0-20.292969-16.507812-36.800781-36.800781-36.800781zm-212.960938 184.078125c-3.613281 2.917969-8.859375 2.917969-12.476562 0l-190.066407-153.34375h392.609376zm-231.503906-137.214844 137.691406 111.085938-137.691406 160.191406zm161.625 130.394531 38.101563 30.742188c7.402343 5.96875 16.46875 8.953125 25.539062 8.953125s18.140625-2.984375 25.539062-8.953125l38.105469-30.742188 143.515625 166.96875h-414.320312zm151.214844-19.308593 137.691406-111.085938v271.277344zm0 0" fill="#9b9b9b" data-original="#000000" style="" class=""/></g></svg>
